<?xml version="1.0" encoding="UTF-8" standalone="no"?>
<!-- Created with Inkscape (http://www.inkscape.org/) -->

<svg
   width="512"
   height="512"
   viewBox="0 0 512 512"
   version="1.1"
   id="svg1"
   inkscape:version="1.3.2 (091e20e, 2023-11-25)"
   sodipodi:docname="vx.svg"
   inkscape:export-filename="vx.svg"
   inkscape:export-xdpi="96"
   inkscape:export-ydpi="96"
   xmlns:inkscape="http://www.inkscape.org/namespaces/inkscape"
   xmlns:sodipodi="http://sodipodi.sourceforge.net/DTD/sodipodi-0.dtd"
   xmlns="http://www.w3.org/2000/svg"
   xmlns:svg="http://www.w3.org/2000/svg">
   <style>
      path {
         fill: black;
      }
      @media (prefers-color-scheme: dark) {
         path { fill: white; }
      }
   </style>
   <sodipodi:namedview
      id="namedview1"
      pagecolor="#ffffff"
      bordercolor="#999999"
      borderopacity="1"
      inkscape:showpageshadow="0"
      inkscape:pageopacity="0"
      inkscape:pagecheckerboard="0"
      inkscape:deskcolor="#d1d1d1"
      inkscape:document-units="px"
      showguides="false"
      inkscape:zoom="0.70488963"
      inkscape:cx="109.23696"
      inkscape:cy="148.25016"
      inkscape:window-width="1368"
      inkscape:window-height="1010"
      inkscape:window-x="0"
      inkscape:window-y="38"
      inkscape:window-maximized="0"
      inkscape:current-layer="layer1" />
   <defs
      id="defs1" />
   <g
      inkscape:label="Layer 1"
      inkscape:groupmode="layer"
      id="layer1">
      <path
         d="m 325.84252,296.32161 c 13.44443,19.99998 23.38887,32.66663 29.83331,37.99996 6.55555,5.22222 14.83332,8.11111 24.83331,8.66666 v 6.16666 h -96.99991 v -6.16666 c 6.44444,-0.11111 11.22221,-0.77777 14.33332,-2 2.33333,-0.99999 4.22222,-2.49999 5.66666,-4.49999 1.55555,-2.11111 2.33333,-4.22222 2.33333,-6.33333 0,-2.55555 -0.5,-5.11111 -1.5,-7.66666 -0.77777,-1.88889 -3.83332,-6.77777 -9.16665,-14.66665 -37.2558,-56.96475 -52.33061,-79.59213 -90.16659,-134.99987 -12.11109,-17.66665 -22.38886,-29.2222 -30.8333,-34.66664 -8.44443,-5.55555 -18.16665,-8.49999 -29.16664,-8.83332 v -6.16666 h 104.4999 v 6.16666 c -8.88888,0.33333 -14.99998,1.77778 -18.33331,4.33333 -3.22222,2.55555 -4.83333,5.38888 -4.83333,8.49999 0,4.11111 2.66666,10.1111 7.99999,17.99998 z"
         id="text2"
         style="font-size:341.333px;font-family:'Times New Roman';-inkscape-font-specification:'Times New Roman, ';stroke:none;stroke-width:8;stroke-linecap:square;stroke-linejoin:round;fill-opacity:1;stroke-opacity:1;stroke-dasharray:none"
         aria-label="X"
         sodipodi:nodetypes="ccccccccscccccccccscc"
         inkscape:label="X" />
      <path
         style="stroke:none;stroke-width:8;stroke-linecap:square;stroke-linejoin:round;fill-opacity:1;stroke-dasharray:none"
         d="M 63.564527,163.7049 C 118.57042,272.59796 152.00622,350.67661 183.37728,425.80563 225.70771,265.4373 295.37915,186.7412 478.80267,79.133261 272.48812,176.3747 210.7617,238.39312 170.86699,304.21451 139.83232,262.11079 108.06726,219.27668 63.564527,163.7049 Z"
         id="path1"
         sodipodi:nodetypes="ccccc"
         inkscape:label="V" />
   </g>
</svg>